<svg width="405" height="405" viewBox="0 0 405 405" fill="none" xmlns="http://www.w3.org/2000/svg">
<circle cx="202.5" cy="202.5" r="202.5" fill="#DEB99E"/>
<g filter="url(#filter0_d_104_9)">
<path d="M41.735 222.325C40.0883 222.325 38.9183 221.458 38.225 219.725C37.575 217.992 37.25 215.218 37.25 211.405C37.25 205.772 38.0517 200.42 39.655 195.35C40.045 194.093 40.6733 193.183 41.54 192.62C42.45 192.013 43.7067 191.71 45.31 191.71C46.1767 191.71 46.7833 191.818 47.13 192.035C47.4767 192.252 47.65 192.663 47.65 193.27C47.65 193.963 47.325 195.523 46.675 197.95C46.2417 199.683 45.895 201.2 45.635 202.5C45.375 203.8 45.1583 205.403 44.985 207.31C46.415 203.583 48.0183 200.55 49.795 198.21C51.5717 195.87 53.305 194.202 54.995 193.205C56.7283 192.208 58.31 191.71 59.74 191.71C62.5567 191.71 63.965 193.118 63.965 195.935C63.965 197.625 63.4883 200.68 62.535 205.1C61.7117 208.87 61.3 211.362 61.3 212.575C61.3 214.308 61.9283 215.175 63.185 215.175C64.0517 215.175 65.07 214.655 66.24 213.615C67.4533 212.532 69.0567 210.798 71.05 208.415C71.57 207.808 72.155 207.505 72.805 207.505C73.3683 207.505 73.8017 207.765 74.105 208.285C74.4517 208.805 74.625 209.52 74.625 210.43C74.625 212.163 74.2133 213.507 73.39 214.46C71.5267 216.757 69.5117 218.642 67.345 220.115C65.2217 221.588 62.795 222.325 60.065 222.325C57.855 222.325 56.1867 221.697 55.06 220.44C53.9333 219.14 53.37 217.277 53.37 214.85C53.37 213.637 53.6733 211.47 54.28 208.35C54.8433 205.62 55.125 203.735 55.125 202.695C55.125 202.002 54.8867 201.655 54.41 201.655C53.8467 201.655 53.045 202.392 52.005 203.865C51.0083 205.295 49.9683 207.202 48.885 209.585C47.845 211.968 47 214.482 46.35 217.125C45.8733 219.162 45.31 220.548 44.66 221.285C44.0533 221.978 43.0783 222.325 41.735 222.325ZM102.516 202.045C103.079 202.045 103.513 202.327 103.816 202.89C104.119 203.453 104.271 204.168 104.271 205.035C104.271 207.115 103.643 208.35 102.386 208.74C99.7861 209.65 96.9261 210.17 93.8061 210.3C92.9828 213.94 91.3578 216.865 88.9311 219.075C86.5044 221.242 83.7528 222.325 80.6761 222.325C78.0761 222.325 75.8444 221.697 73.9811 220.44C72.1611 219.183 70.7744 217.515 69.8211 215.435C68.8678 213.355 68.3911 211.102 68.3911 208.675C68.3911 205.382 69.0194 202.457 70.2761 199.9C71.5328 197.3 73.2661 195.285 75.4761 193.855C77.6861 192.382 80.1344 191.645 82.8211 191.645C86.1144 191.645 88.7578 192.793 90.7511 195.09C92.7878 197.343 93.9794 200.138 94.3261 203.475C96.3628 203.345 98.7894 202.912 101.606 202.175C101.953 202.088 102.256 202.045 102.516 202.045ZM81.1961 215.435C82.5828 215.435 83.7744 214.872 84.7711 213.745C85.8111 212.618 86.5044 210.993 86.8511 208.87C85.5078 207.96 84.4678 206.768 83.7311 205.295C83.0378 203.822 82.6911 202.262 82.6911 200.615C82.6911 199.922 82.7561 199.228 82.8861 198.535H82.5611C80.8278 198.535 79.3761 199.38 78.2061 201.07C77.0794 202.717 76.5161 205.057 76.5161 208.09C76.5161 210.473 76.9711 212.293 77.8811 213.55C78.8344 214.807 79.9394 215.435 81.1961 215.435ZM129.333 207.505C129.896 207.505 130.329 207.765 130.633 208.285C130.979 208.805 131.153 209.52 131.153 210.43C131.153 212.163 130.741 213.507 129.918 214.46C128.054 216.757 126.018 218.642 123.808 220.115C121.598 221.588 119.063 222.325 116.203 222.325C107.363 222.325 102.943 216.107 102.943 203.67C102.943 201.763 103.008 199.835 103.138 197.885H100.603C99.3027 197.885 98.4143 197.647 97.9377 197.17C97.5043 196.693 97.2877 195.935 97.2877 194.895C97.2877 192.468 98.2627 191.255 100.213 191.255H103.918C104.654 186.488 105.781 182.133 107.298 178.19C108.814 174.247 110.634 171.105 112.758 168.765C114.924 166.425 117.243 165.255 119.713 165.255C121.533 165.255 122.963 166.057 124.003 167.66C125.043 169.263 125.563 171.278 125.563 173.705C125.563 180.422 122.746 186.272 117.113 191.255H124.393C125.086 191.255 125.584 191.407 125.888 191.71C126.191 192.013 126.343 192.577 126.343 193.4C126.343 196.39 123.894 197.885 118.998 197.885H111.068C110.981 200.052 110.938 201.742 110.938 202.955C110.938 207.462 111.458 210.625 112.498 212.445C113.581 214.265 115.271 215.175 117.568 215.175C119.431 215.175 121.078 214.612 122.508 213.485C123.938 212.358 125.628 210.668 127.578 208.415C128.098 207.808 128.683 207.505 129.333 207.505ZM117.958 171.495C117.308 171.495 116.571 172.318 115.748 173.965C114.968 175.568 114.209 177.822 113.473 180.725C112.779 183.585 112.194 186.77 111.718 190.28C114.274 188.07 116.181 185.6 117.438 182.87C118.738 180.097 119.388 177.583 119.388 175.33C119.388 172.773 118.911 171.495 117.958 171.495ZM154.85 207.505C155.414 207.505 155.847 207.765 156.15 208.285C156.497 208.805 156.67 209.52 156.67 210.43C156.67 212.163 156.259 213.507 155.435 214.46C153.832 216.41 151.557 218.208 148.61 219.855C145.707 221.502 142.587 222.325 139.25 222.325C134.7 222.325 131.169 221.09 128.655 218.62C126.142 216.15 124.885 212.77 124.885 208.48C124.885 205.49 125.514 202.717 126.77 200.16C128.027 197.56 129.76 195.502 131.97 193.985C134.224 192.468 136.759 191.71 139.575 191.71C142.089 191.71 144.104 192.468 145.62 193.985C147.137 195.458 147.895 197.473 147.895 200.03C147.895 203.02 146.812 205.598 144.645 207.765C142.522 209.888 138.904 211.578 133.79 212.835C134.874 214.828 136.932 215.825 139.965 215.825C141.915 215.825 144.125 215.153 146.595 213.81C149.109 212.423 151.275 210.625 153.095 208.415C153.615 207.808 154.2 207.505 154.85 207.505ZM138.47 198.08C136.867 198.08 135.502 199.012 134.375 200.875C133.292 202.738 132.75 204.992 132.75 207.635V207.765C135.307 207.158 137.322 206.248 138.795 205.035C140.269 203.822 141.005 202.413 141.005 200.81C141.005 199.987 140.767 199.337 140.29 198.86C139.857 198.34 139.25 198.08 138.47 198.08ZM185.055 209.455C185.619 209.455 186.052 209.715 186.355 210.235C186.702 210.755 186.875 211.47 186.875 212.38C186.875 213.94 186.507 215.283 185.77 216.41C183.214 220.353 179.574 222.325 174.85 222.325C172.814 222.325 170.994 221.935 169.39 221.155C167.83 220.332 166.552 219.162 165.555 217.645C163.042 220.722 160.117 222.26 156.78 222.26C154.397 222.26 152.512 221.567 151.125 220.18C149.739 218.793 149.045 216.952 149.045 214.655C149.045 212.488 149.544 210.733 150.54 209.39C151.537 208.047 152.945 207.375 154.765 207.375C156.325 207.375 157.105 207.96 157.105 209.13C157.105 209.477 157.062 210.083 156.975 210.95L156.78 213.42C156.78 214.72 157.344 215.37 158.47 215.37C159.294 215.37 160.074 214.893 160.81 213.94C161.59 212.943 162.219 211.6 162.695 209.91C163.215 208.22 163.475 206.357 163.475 204.32C163.475 202.76 163.28 201.46 162.89 200.42C162.5 199.337 162.024 198.795 161.46 198.795C160.984 198.795 160.637 198.925 160.42 199.185C160.204 199.402 159.987 199.792 159.77 200.355C159.51 201.048 159.164 201.612 158.73 202.045C158.297 202.435 157.539 202.63 156.455 202.63C155.502 202.63 154.744 202.305 154.18 201.655C153.617 200.962 153.335 199.922 153.335 198.535C153.335 196.325 154.007 194.592 155.35 193.335C156.694 192.078 158.427 191.45 160.55 191.45C162.37 191.45 164.017 191.905 165.49 192.815C166.964 193.682 168.09 194.96 168.87 196.65C170.17 194.917 171.622 193.617 173.225 192.75C174.872 191.883 176.475 191.45 178.035 191.45C179.725 191.45 181.004 191.84 181.87 192.62C182.78 193.4 183.235 194.657 183.235 196.39C183.235 198.34 182.867 199.878 182.13 201.005C181.394 202.088 180.505 202.63 179.465 202.63C178.512 202.63 177.862 202.435 177.515 202.045C177.169 201.655 176.909 201.092 176.735 200.355C176.649 199.835 176.519 199.445 176.345 199.185C176.172 198.925 175.869 198.795 175.435 198.795C174.915 198.795 174.352 199.293 173.745 200.29C173.182 201.243 172.684 202.522 172.25 204.125C171.86 205.728 171.665 207.397 171.665 209.13C171.665 211.08 172.099 212.64 172.965 213.81C173.875 214.98 174.959 215.565 176.215 215.565C178.599 215.565 180.96 213.853 183.3 210.43C183.734 209.78 184.319 209.455 185.055 209.455Z" fill="#1F6A5A"/>
<path d="M204.74 223.65C201.317 223.65 198.695 222.675 196.875 220.725C195.098 218.775 194.21 216.023 194.21 212.47V188.03C194.21 184.477 195.098 181.725 196.875 179.775C198.695 177.825 201.317 176.85 204.74 176.85C208.163 176.85 210.763 177.825 212.54 179.775C214.36 181.725 215.27 184.477 215.27 188.03V192.84H208.51V187.575C208.51 184.758 207.318 183.35 204.935 183.35C202.552 183.35 201.36 184.758 201.36 187.575V212.99C201.36 215.763 202.552 217.15 204.935 217.15C207.318 217.15 208.51 215.763 208.51 212.99V206.035H215.27V212.47C215.27 216.023 214.36 218.775 212.54 220.725C210.763 222.675 208.163 223.65 204.74 223.65ZM219.548 177.5H226.698V216.5H238.463V223H219.548V177.5ZM251.973 223.65C248.463 223.65 245.776 222.653 243.913 220.66C242.049 218.667 241.118 215.85 241.118 212.21V188.29C241.118 184.65 242.049 181.833 243.913 179.84C245.776 177.847 248.463 176.85 251.973 176.85C255.483 176.85 258.169 177.847 260.033 179.84C261.896 181.833 262.828 184.65 262.828 188.29V212.21C262.828 215.85 261.896 218.667 260.033 220.66C258.169 222.653 255.483 223.65 251.973 223.65ZM251.973 217.15C254.443 217.15 255.678 215.655 255.678 212.665V187.835C255.678 184.845 254.443 183.35 251.973 183.35C249.503 183.35 248.268 184.845 248.268 187.835V212.665C248.268 215.655 249.503 217.15 251.973 217.15ZM278.063 223.65C274.596 223.65 271.953 222.675 270.133 220.725C268.313 218.732 267.403 215.893 267.403 212.21V177.5H274.553V212.73C274.553 214.29 274.856 215.417 275.463 216.11C276.113 216.803 277.023 217.15 278.193 217.15C279.363 217.15 280.251 216.803 280.858 216.11C281.508 215.417 281.833 214.29 281.833 212.73V177.5H288.723V212.21C288.723 215.893 287.813 218.732 285.993 220.725C284.173 222.675 281.53 223.65 278.063 223.65ZM293.815 177.5H304.735C308.289 177.5 310.954 178.453 312.73 180.36C314.507 182.267 315.395 185.062 315.395 188.745V211.755C315.395 215.438 314.507 218.233 312.73 220.14C310.954 222.047 308.289 223 304.735 223H293.815V177.5ZM304.605 216.5C305.775 216.5 306.664 216.153 307.27 215.46C307.92 214.767 308.245 213.64 308.245 212.08V188.42C308.245 186.86 307.92 185.733 307.27 185.04C306.664 184.347 305.775 184 304.605 184H300.965V216.5H304.605Z" fill="#2EB2FF"/>
<path d="M373.632 187.726C370.591 179.704 362.841 174 353.763 174C344.686 174 336.936 179.698 333.895 187.72C328.204 189.214 324 194.393 324 200.562C324 207.9 329.943 213.844 337.275 213.844H370.225C377.557 213.844 383.5 207.9 383.5 200.562C383.5 194.407 379.31 189.227 373.632 187.726Z" fill="#2EB2FF"/>
</g>
<defs>
<filter id="filter0_d_104_9" x="28.25" y="163.255" width="358.75" height="83.745" filterUnits="userSpaceOnUse" color-interpolation-filters="sRGB">
<feFlood flood-opacity="0" result="BackgroundImageFix"/>
<feColorMatrix in="SourceAlpha" type="matrix" values="0 0 0 0 0 0 0 0 0 0 0 0 0 0 0 0 0 0 127 0" result="hardAlpha"/>
<feOffset dx="-3" dy="4"/>
<feGaussianBlur stdDeviation="3"/>
<feComposite in2="hardAlpha" operator="out"/>
<feColorMatrix type="matrix" values="0 0 0 0 0 0 0 0 0 0 0 0 0 0 0 0 0 0 0.25 0"/>
<feBlend mode="normal" in2="BackgroundImageFix" result="effect1_dropShadow_104_9"/>
<feBlend mode="normal" in="SourceGraphic" in2="effect1_dropShadow_104_9" result="shape"/>
</filter>
</defs>
</svg>
