<svg version="1.1" 
        baseProfile="full" 
        width="1500" height="600"
        viewbox="0 0 1500 600"
        preserveAspectRatio="xMidYMid meet"
        xmlns="http://www.w3.org/2000/svg">
        <rect width="100%" height="100%" fill="#03264f"/>
        <rect width="100%" height="100%" fill="url(#pattern)"/>
        <defs>
          <pattern id="pattern" x="0" y="0" width="38" height="38" patternTransform="rotate(330) scale(4)" patternUnits="userSpaceOnUse">
              <g>
                <path fill="#000d36" d="M19 5v14H5V5h14m1.1-2H3.9c-.5 0-.9.4-.9.9v16.2c0 .4.4.9.9.9h16.2c.4 0 .9-.5.9-.9V3.9c0-.5-.5-.9-.9-.9zM11 7h6v2h-6V7zm0 4h6v2h-6v-2zm0 4h6v2h-6zM7 7h2v2H7zm0 4h2v2H7zm0 4h2v2H7z"/>
              </g>
          </pattern>
        </defs>
      </svg>
      