<svg version="1.1" 
        baseProfile="full" 
        width="1500" height="600"
        viewbox="0 0 1500 600"
        preserveAspectRatio="xMidYMid meet"
        xmlns="http://www.w3.org/2000/svg">
        <rect width="100%" height="100%" fill="#c8eed9"/>
        <rect width="100%" height="100%" fill="url(#pattern)"/>
        <defs>
          <pattern id="pattern" x="0" y="0" width="25" height="25" patternTransform="rotate(330) scale(6)" patternUnits="userSpaceOnUse">
              <g>
                <path fill="#e4fff5" d="M20.41,8.41l-4.83-4.83C15.21,3.21,14.7,3,14.17,3H5C3.9,3,3,3.9,3,5v14c0,1.1,0.9,2,2,2h14c1.1,0,2-0.9,2-2V9.83 C21,9.3,20.79,8.79,20.41,8.41z M7,7h7v2H7V7z M17,17H7v-2h10V17z M17,13H7v-2h10V13z"/>
              </g>
          </pattern>
        </defs>
      </svg>
      